<?xml version="1.0" encoding="UTF-8"?>
<svg id="Layer_2" xmlns="http://www.w3.org/2000/svg" viewBox="0 0 447.61 512">
  <g id="Layer_1-2" data-name="Layer_1">
    <path d="M323.79,0c8.09,3.51,11.07,9.6,11.43,18.46,2.12,51.75,42.23,91.53,94.06,93.85,13.27.59,18.32,5.79,18.32,18.91,0,24.5.01,48.99,0,73.49,0,12.51-5.92,18.37-18.48,18.09-31.25-.68-60.99-7.67-89.01-21.67-1.19-.59-2.38-1.2-3.59-1.74-.26-.12-.63.01-1.54.05,0,1.89,0,3.81,0,5.73-.04,48.16.4,96.33-.22,144.48-.96,75.03-57.38,142.88-130.93,158.29-7.95,1.66-16.02,2.72-24.03,4.05h-25c-8.97-1.61-18.02-2.88-26.89-4.89-63.02-14.32-114.08-68.36-125.24-132.35-14.11-80.9,29.05-157.54,105.49-187.13,18.82-7.29,38.39-10.86,58.59-10.78,8.96.04,15.53,5.75,15.62,14.72.27,26.82.26,53.65.02,80.47-.08,9.14-6.4,14.62-15.93,15.03-30.51,1.3-53.36,22.99-56.09,53.24-2.57,28.47,18.44,55.5,47.02,60.48,29.21,5.09,57.96-13.06,65.22-41.51,1.42-5.58,2.06-11.5,2.07-17.27.12-107.47.16-214.94-.05-322.41-.02-9.2,2.75-15.73,11.17-19.6h88ZM254.75,30.16c0,2.57,0,4.71,0,6.85,0,102.17.09,204.33-.04,306.5-.06,54.05-46.73,94.78-99.67,87.33-38.38-5.4-70.24-37.69-74.21-75.19-4.44-41.98,18.64-79.75,57.15-93.48,4.76-1.7,11.64-1.94,13.77-5.27,2.44-3.8.71-10.3.72-15.63.03-10.97,0-21.94,0-33.6-3.33.45-6.08.74-8.81,1.21-72.69,12.47-123.28,81.86-112.64,154.45,10.82,73.79,76.14,124.94,150.51,117.86,68.12-6.48,122.42-64.64,123.21-133.15.67-57.83.21-115.66.17-173.5,0-6.8,1.65-12.66,8-16.03,6.51-3.46,12.4-1.63,18.16,2.43,19,13.42,39.93,22.6,62.64,27.58,7.69,1.68,15.54,2.62,23.87,3.98,0-16.76-.05-32.4.04-48.04.02-3.27-2.14-3.07-4.29-3.48-52.61-9.91-87.12-40.4-103.43-91.35-2.01-6.27-2.96-12.89-4.43-19.47h-50.75Z"/>
  </g>
</svg>