<?xml version="1.0" encoding="UTF-8"?>
<svg id="Layer_2" xmlns="http://www.w3.org/2000/svg" viewBox="0 0 100 100">
  <defs>
    <style>
      .cls-1 {
        fill: #fff;
      }
    </style>
  </defs>
  <g id="Layer_1-2" data-name="Layer_1">
    <g>
      <path class="cls-1" d="M100,100H0V0h100v100ZM35.89,58.92v1.38c0,11.22,0,22.44,0,33.66,0,.42,0,.84.04,1.26.21,2.64,2.12,4.55,4.76,4.57,5.35.05,10.7.04,16.05,0,2.07-.02,3.62-1.05,4.39-2.97.33-.81.4-1.77.4-2.66.03-11.32.02-22.64.02-33.95,0-.41,0-.82,0-1.29,3.68,0,7.21,0,10.74,0,3.57,0,5.51-1.96,5.51-5.56,0-4.7,0-9.4,0-14.11,0-3.52-1.94-5.46-5.48-5.47-3.21,0-6.42,0-9.63,0-.34,0-.69,0-1.09,0,0-2.46-.05-4.78.01-7.11.06-2.14.46-2.53,2.63-2.57,2.92-.06,5.84-.04,8.75-.07,3.41-.03,5.37-2,5.38-5.4,0-4.44,0-8.89,0-13.33,0-.58-.06-1.17-.2-1.73-.43-1.84-2.41-3.5-4.38-3.45-4.86.11-9.73.02-14.59.04-3.87.02-7.5,1.06-10.87,2.9-6.93,3.78-10.8,9.8-11.92,17.46-.57,3.92-.38,7.95-.53,11.93-.02.41,0,.82,0,1.33-.49,0-.84,0-1.19,0-2.53,0-5.06,0-7.59,0-3.45.01-5.37,1.91-5.38,5.34,0,4.8,0,9.6,0,14.4,0,.58.02,1.18.16,1.73.6,2.3,2.43,3.64,4.99,3.66,2.95.02,5.9,0,9,0Z"/>
      <path d="M35.89,58.92c-3.1,0-6.05.02-9,0-2.56-.02-4.4-1.36-4.99-3.66-.14-.55-.16-1.15-.16-1.73-.01-4.8-.01-9.6,0-14.4,0-3.43,1.93-5.33,5.38-5.34,2.53,0,5.06,0,7.59,0,.35,0,.7,0,1.19,0,0-.51-.01-.92,0-1.33.15-3.98-.04-8.01.53-11.93,1.12-7.66,4.99-13.68,11.92-17.46,3.37-1.84,7-2.88,10.87-2.9,4.86-.02,9.73.07,14.59-.04,1.97-.05,3.96,1.61,4.38,3.45.13.56.19,1.15.2,1.73.02,4.44.01,8.89,0,13.33,0,3.4-1.97,5.37-5.38,5.4-2.92.03-5.84,0-8.75.07-2.17.05-2.58.43-2.63,2.57-.06,2.32-.01,4.65-.01,7.11.4,0,.75,0,1.09,0,3.21,0,6.42,0,9.63,0,3.54.01,5.48,1.95,5.48,5.47,0,4.7,0,9.4,0,14.11,0,3.59-1.94,5.55-5.51,5.56-3.53,0-7.06,0-10.74,0,0,.47,0,.88,0,1.29,0,11.32,0,22.64-.02,33.95,0,.89-.07,1.85-.4,2.66-.78,1.92-2.33,2.95-4.39,2.97-5.35.04-10.7.05-16.05,0-2.64-.02-4.55-1.93-4.76-4.57-.03-.42-.04-.84-.04-1.26,0-11.22,0-22.44,0-33.66v-1.38ZM41.75,93.91h13.94c0-.47,0-.89,0-1.3,0-11.9,0-23.81,0-35.71,0-2.61,1.21-3.82,3.8-3.83,3.79,0,7.59,0,11.38,0h1.03v-13.43c-.41,0-.76,0-1.11,0-3.83,0-7.65.01-11.48,0-2.13-.01-3.54-1.15-3.58-3.16-.06-3.69-.12-7.4.14-11.08.29-4.09,2.55-6.43,6.6-6.91,2.88-.34,5.82-.22,8.73-.3.41-.01.82,0,1.26,0V5.93c-.14-.04-.23-.09-.32-.09-4.18.01-8.37-.09-12.55.08-4.31.17-8.28,1.5-11.59,4.4-4.18,3.67-5.94,8.49-6.19,13.89-.18,3.82-.07,7.65-.09,11.48-.01,2.7-1.23,3.94-3.91,3.94-2.82,0-5.64,0-8.46,0h-1.71v13.43c.44,0,.79,0,1.15,0,3.18,0,6.36-.02,9.53,0,1.97.01,3.21,1.2,3.38,3.15.03.35.02.71.02,1.07,0,11.77,0,23.55,0,35.32v1.29Z"/>
      <path class="cls-1" d="M41.75,93.91v-1.29c0-11.77,0-23.55,0-35.32,0-.36.01-.71-.02-1.07-.17-1.95-1.41-3.13-3.38-3.15-3.18-.02-6.36,0-9.53,0-.35,0-.71,0-1.15,0v-13.43h1.71c2.82,0,5.64,0,8.46,0,2.68,0,3.9-1.24,3.91-3.94.02-3.83-.09-7.66.09-11.48.25-5.4,2.01-10.22,6.19-13.89,3.3-2.9,7.27-4.23,11.59-4.4,4.18-.17,8.36-.07,12.55-.08.09,0,.18.05.32.09v12.25c-.44,0-.85,0-1.26,0-2.91.08-5.85-.04-8.73.3-4.06.48-6.31,2.82-6.6,6.91-.26,3.68-.21,7.39-.14,11.08.03,2.01,1.45,3.15,3.58,3.16,3.83.02,7.65,0,11.48,0,.35,0,.7,0,1.11,0v13.43h-1.03c-3.79,0-7.59,0-11.38,0-2.59,0-3.8,1.21-3.8,3.83,0,11.9,0,23.81,0,35.71,0,.41,0,.83,0,1.3h-13.94Z"/>
    </g>
  </g>
</svg>