<?xml version="1.0" encoding="UTF-8"?>
<svg id="Layer_2" xmlns="http://www.w3.org/2000/svg" viewBox="0 0 100 100">
  <defs>
    <style>
      .cls-1 {
        fill: #fff;
      }
    </style>
  </defs>
  <g id="Layer_1-2" data-name="Layer_1">
    <g>
      <path class="cls-1" d="M100,100H0V0h100v100ZM50.08,85.43c9.49,0,18.97,0,28.46,0,.97,0,1.96,0,2.91-.15,8.61-1.38,14.38-8.13,14.39-16.86.02-12.22.01-24.44,0-36.66,0-1.04-.06-2.09-.25-3.1-1.53-8.37-8.19-13.9-16.75-13.91-19.17-.01-38.34,0-57.51,0-.87,0-1.76,0-2.62.15-8.6,1.37-14.38,8.14-14.39,16.86-.02,12.22-.02,24.44.02,36.66,0,1.39.14,2.8.46,4.15,1.81,7.75,8.39,12.85,16.54,12.87,9.58.02,19.17,0,28.75,0Z"/>
      <path d="M50.08,85.43c-9.58,0-19.17.01-28.75,0-8.14-.01-14.72-5.12-16.54-12.87-.31-1.35-.45-2.76-.46-4.15-.03-12.22-.03-24.44-.02-36.66.01-8.72,5.79-15.49,14.39-16.86.86-.14,1.75-.15,2.62-.15,19.17,0,38.34-.02,57.51,0,8.56,0,15.22,5.54,16.75,13.91.19,1.02.25,2.07.25,3.1.02,12.22.03,24.44,0,36.66-.01,8.73-5.78,15.48-14.39,16.86-.96.15-1.94.15-2.91.15-9.49.01-18.97,0-28.46,0ZM87.48,32.53c-.47.36-.78.59-1.08.83-7.82,6.08-15.62,12.18-23.46,18.24-7.78,6-18.03,5.95-25.8-.08-7.85-6.1-15.69-12.2-23.53-18.3-.27-.21-.55-.39-.95-.67v1.13c0,11.5,0,23,0,34.51,0,5.46,3.49,8.97,8.94,8.97,19,0,38.01,0,57.01,0,.84,0,1.7-.06,2.51-.26,3.79-.9,6.39-4.14,6.4-8.05.03-11.86.01-23.72.01-35.58,0-.18-.02-.37-.04-.72ZM84.05,24.63c-1.7-1.25-3.54-1.61-5.5-1.61-18.97,0-37.94,0-56.91,0-.68,0-1.37.04-2.04.15-1.25.19-2.4.62-3.44,1.46.27.22.47.38.67.54,8.35,6.5,16.71,13,25.07,19.5,5.26,4.09,11.17,4.07,16.44-.05,3.71-2.9,7.43-5.78,11.15-8.67,4.82-3.75,9.63-7.5,14.55-11.33Z"/>
      <path class="cls-1" d="M87.48,32.53c.02.36.04.54.04.72,0,11.86.02,23.72-.01,35.58,0,3.91-2.6,7.14-6.4,8.05-.81.19-1.67.26-2.51.26-19,.01-38.01.01-57.01,0-5.45,0-8.94-3.51-8.94-8.97,0-11.5,0-23,0-34.51v-1.13c.4.28.68.47.95.67,7.85,6.1,15.69,12.21,23.53,18.3,7.77,6.03,18.02,6.09,25.8.08,7.84-6.05,15.64-12.16,23.46-18.24.31-.24.62-.47,1.08-.83Z"/>
      <path class="cls-1" d="M84.05,24.63c-4.92,3.83-9.74,7.58-14.55,11.33-3.72,2.89-7.44,5.78-11.15,8.67-5.27,4.12-11.18,4.14-16.44.05-8.36-6.5-16.71-13-25.07-19.5-.2-.16-.4-.32-.67-.54,1.04-.84,2.19-1.27,3.44-1.46.67-.1,1.36-.15,2.04-.15,18.97,0,37.94,0,56.91,0,1.96,0,3.8.36,5.5,1.61Z"/>
    </g>
  </g>
</svg>