<?xml version="1.0" encoding="UTF-8"?>
<svg id="Layer_2" xmlns="http://www.w3.org/2000/svg" viewBox="0 0 100 100">
  <defs>
    <style>
      .cls-1 {
        fill: #fff;
      }
    </style>
  </defs>
  <g id="Layer_1-2" data-name="Layer_1">
    <g>
      <path class="cls-1" d="M3.9,100H0c0-33.33,0-66.66,0-100h100v100h-3.67c1.68-.79,2.17-2.13,2.16-3.94-.05-12.12-.01-24.24-.04-36.36,0-1.68-.13-3.38-.37-5.04-2.24-15.53-17.92-26.39-33.23-22.96-2.41.54-4.74,1.44-7.15,2.19-.35-1.4-1.29-2.37-2.96-2.37-6.24-.01-12.48-.02-18.72,0-1.71,0-2.85,1.19-2.92,2.89-.01.29,0,.58,0,.88,0,20.31.01,40.61-.03,60.92,0,1.8.54,3.08,2.22,3.79h-11.11c1.53-.66,2.23-1.76,2.23-3.48-.03-20.52-.02-41.05-.02-61.57,0-2.37-1.07-3.42-3.47-3.43-5.88,0-11.76,0-17.64,0-2.48,0-3.53,1.06-3.53,3.57,0,20.33.02,40.66-.03,60.99,0,1.81.48,3.15,2.17,3.93ZM26.38,12.47c-.01-6.81-5.55-12.31-12.36-12.29C7.29.2,1.76,5.74,1.76,12.48c0,6.8,5.53,12.34,12.32,12.33,6.83,0,12.31-5.51,12.3-12.33Z"/>
      <path d="M35.29,100c-1.68-.71-2.22-1.98-2.22-3.79.04-20.31.03-40.61.03-60.92,0-.29,0-.59,0-.88.07-1.7,1.21-2.88,2.92-2.89,6.24-.02,12.48-.02,18.72,0,1.68,0,2.61.97,2.96,2.37,2.41-.75,4.74-1.65,7.15-2.19,15.31-3.43,30.99,7.43,33.23,22.96.24,1.67.36,3.36.37,5.04.03,12.12,0,24.24.04,36.36,0,1.81-.48,3.15-2.16,3.94h-20.28c-1.7-.69-2.26-1.96-2.26-3.76.05-10.88.02-21.75.02-32.63,0-.58-.01-1.17-.07-1.75-.35-4.03-3.76-7.21-7.8-7.27-4.6-.07-8.21,3.53-8.21,8.29-.02,11.07-.03,22.14.02,33.21,0,1.81-.48,3.15-2.18,3.92h-20.28ZM51.88,94.11c0-.46,0-.84,0-1.22,0-10.14-.04-20.28.01-30.41.05-9.51,9.55-16.12,18.51-12.96,5.67,2,9.25,7.21,9.26,13.54.02,9.94,0,19.88,0,29.83,0,.4,0,.81,0,1.2h12.95c0-.29,0-.51,0-.73,0-11.47,0-22.94-.02-34.41,0-1.26-.15-2.53-.36-3.78-1.97-11.91-13.93-20.19-25.78-17.88-3.57.7-6.8,2.13-9.66,4.38-1,.79-2.09,1.04-3.27.45-1.17-.58-1.66-1.58-1.65-2.86,0-.61,0-1.21,0-1.82h-12.86v56.68h12.86Z"/>
      <path d="M3.9,100c-1.69-.78-2.18-2.11-2.17-3.93.04-20.33.03-40.66.03-60.99,0-2.5,1.05-3.57,3.53-3.57,5.88,0,11.76,0,17.64,0,2.4,0,3.47,1.05,3.47,3.43,0,20.52,0,41.05.02,61.57,0,1.72-.7,2.83-2.23,3.48H3.9ZM7.67,37.43v56.67h12.82v-56.67H7.67Z"/>
      <path class="cls-1" d="M55.57,100c1.7-.77,2.19-2.1,2.18-3.92-.06-11.07-.04-22.14-.02-33.21,0-4.75,3.61-8.36,8.21-8.29,4.04.06,7.46,3.24,7.8,7.27.05.58.06,1.17.07,1.75,0,10.88.03,21.75-.02,32.63,0,1.8.56,3.08,2.26,3.76h-20.47Z"/>
      <path d="M26.38,12.47c.01,6.83-5.47,12.32-12.3,12.33-6.8,0-12.33-5.53-12.32-12.33C1.76,5.74,7.29.2,14.03.18c6.81-.02,12.35,5.49,12.36,12.29ZM14.04,18.95c3.58.02,6.44-2.79,6.49-6.36.05-3.6-2.83-6.54-6.41-6.56-3.54-.02-6.47,2.85-6.51,6.38-.04,3.6,2.83,6.52,6.43,6.54Z"/>
      <path class="cls-1" d="M51.88,94.11h-12.86v-56.68h12.86c0,.61,0,1.22,0,1.82-.01,1.28.48,2.28,1.65,2.86,1.18.59,2.27.34,3.27-.45,2.86-2.25,6.09-3.69,9.66-4.38,11.85-2.31,23.81,5.96,25.78,17.88.21,1.24.36,2.52.36,3.78.03,11.47.02,22.94.02,34.41,0,.22,0,.45,0,.73h-12.95c0-.39,0-.79,0-1.2,0-9.94.01-19.88,0-29.83-.01-6.33-3.59-11.54-9.26-13.54-8.96-3.16-18.46,3.45-18.51,12.96-.05,10.14-.01,20.27-.01,30.41,0,.38,0,.77,0,1.22Z"/>
      <path class="cls-1" d="M7.67,37.43h12.82v56.67H7.67v-56.67Z"/>
      <path class="cls-1" d="M14.04,18.95c-3.6-.02-6.47-2.94-6.43-6.54.04-3.53,2.97-6.4,6.51-6.38,3.58.02,6.46,2.96,6.41,6.56-.05,3.57-2.92,6.39-6.49,6.36Z"/>
    </g>
  </g>
</svg>