<?xml version="1.0" encoding="UTF-8"?>
<svg id="Layer_2" xmlns="http://www.w3.org/2000/svg" viewBox="0 0 100 100">
  <defs>
    <style>
      .cls-1 {
        fill: #fff;
      }
    </style>
  </defs>
  <g id="Layer_1-2" data-name="Layer_1">
    <g>
      <path d="M65.13,100h-30.03c-.61-.05-1.22-.14-1.83-.15-3.96-.11-7.92-.26-11.8-1.2-8.27-2-14.4-6.68-18.06-14.41-2.26-4.79-2.94-9.94-3-15.17-.11-10.75-.21-21.51-.16-32.26.02-5.16.06-10.34,1.31-15.4C3.74,12.58,8.88,6.26,17.37,2.82,21.93.97,26.73.45,31.59.39c10.14-.11,20.28-.2,30.41-.16,5.32.02,10.67-.01,15.91,1.13,9.68,2.11,16.46,7.65,19.86,17.07,1.64,4.52,2.02,9.25,2.04,14,.04,11.5.07,23-.02,34.51-.03,3.27-.29,6.56-.79,9.79-1.03,6.61-4.01,12.24-9.23,16.55-5.09,4.2-11.11,5.89-17.57,6.32-2.36.16-4.73.26-7.09.39ZM50.05,91.18c0-.05,0-.1,0-.15,2.63,0,5.27.08,7.9-.02,5.68-.2,11.4-.14,17.02-.84,7.68-.96,12.88-5.37,14.77-13.01.75-3.02,1.02-6.23,1.07-9.35.17-10.13.21-20.27.15-30.41-.02-4.02-.22-8.06-.73-12.05-1.02-8.01-6.03-13.44-13.94-15.01-3.41-.68-6.96-.89-10.45-.94-8.74-.15-17.48-.12-26.22-.09-5,.02-10.01-.05-14.97.82-7.56,1.33-12.75,6.13-14.3,13.68-.67,3.25-.89,6.63-.96,9.96-.17,7.99-.23,15.99-.14,23.98.06,5.65.21,11.31.75,16.92.53,5.49,3.12,10.01,7.93,13,3.25,2.02,6.91,2.82,10.68,2.96,7.14.26,14.29.38,21.44.55Z"/>
      <path class="cls-1" d="M65.13,100c2.36-.13,4.73-.23,7.09-.39,6.45-.43,12.48-2.12,17.57-6.32,5.22-4.31,8.2-9.94,9.23-16.55.5-3.23.76-6.52.79-9.79.09-11.5.06-23,.02-34.51-.02-4.76-.4-9.48-2.04-14-3.41-9.42-10.19-14.96-19.86-17.07-5.24-1.14-10.59-1.11-15.91-1.13-10.14-.04-20.28.05-30.41.16-4.86.05-9.67.57-14.23,2.42C8.88,6.26,3.74,12.58,1.56,21.4.31,26.46.27,31.64.25,36.8c-.05,10.75.05,21.51.16,32.26.05,5.23.73,10.38,3,15.17,3.65,7.73,9.79,12.42,18.06,14.41,3.88.94,7.84,1.09,11.8,1.2.61.02,1.22.1,1.83.15H0V0h100v100h-34.87Z"/>
      <path class="cls-1" d="M50.05,91.18c-7.15-.18-14.29-.3-21.44-.55-3.77-.14-7.42-.94-10.68-2.96-4.81-2.99-7.4-7.51-7.93-13-.54-5.61-.69-11.28-.75-16.92-.09-7.99-.03-15.99.14-23.98.07-3.33.29-6.71.96-9.96,1.55-7.54,6.73-12.34,14.3-13.68,4.95-.87,9.97-.81,14.97-.82,8.74-.03,17.48-.05,26.22.09,3.49.06,7.04.26,10.45.94,7.91,1.58,12.91,7.01,13.94,15.01.51,3.98.7,8.03.73,12.05.06,10.14.02,20.27-.15,30.41-.05,3.13-.32,6.33-1.07,9.35-1.89,7.64-7.09,12.05-14.77,13.01-5.62.7-11.34.63-17.02.84-2.63.09-5.26.02-7.9.02,0,.05,0,.1,0,.15ZM24.45,50.07c-.03,14.13,11.48,25.65,25.65,25.67,14.1.02,25.55-11.39,25.64-25.57.1-14.12-11.37-25.64-25.58-25.71-14.13-.07-25.67,11.44-25.71,25.6ZM82.73,23.4c-.02-3.35-2.69-5.96-6.06-5.92-3.3.04-5.91,2.7-5.89,6.01.02,3.31,2.74,5.97,6.07,5.94,3.28-.04,5.9-2.72,5.87-6.02Z"/>
      <path d="M24.45,50.07c.03-14.17,11.58-25.67,25.71-25.6,14.21.07,25.68,11.59,25.58,25.71-.1,14.18-11.54,25.59-25.64,25.57-14.16-.02-25.68-11.55-25.65-25.67ZM33.48,50.1c0,9.2,7.4,16.6,16.6,16.61,9.21,0,16.61-7.36,16.64-16.57.03-9.24-7.4-16.67-16.65-16.66-9.2.01-16.59,7.42-16.59,16.62Z"/>
      <path d="M82.73,23.4c.02,3.31-2.59,5.99-5.87,6.02-3.33.04-6.05-2.63-6.07-5.94-.02-3.3,2.59-5.96,5.89-6.01,3.36-.04,6.03,2.57,6.06,5.92Z"/>
      <path class="cls-1" d="M33.48,50.1c0-9.2,7.39-16.61,16.59-16.62,9.25-.01,16.67,7.42,16.65,16.66-.03,9.21-7.43,16.58-16.64,16.57-9.2,0-16.6-7.41-16.6-16.61Z"/>
    </g>
  </g>
</svg>